<!DOCTYPE svg PUBLIC "-//W3C//DTD SVG 1.1//EN" "http://www.w3.org/Graphics/SVG/1.1/DTD/svg11.dtd">
<!-- Uploaded to: SVG Repo, www.svgrepo.com, Transformed by: SVG Repo Mixer Tools -->
<svg width="800px" height="800px" viewBox="-2.4 -2.4 28.80 28.80" version="1.1" xml:space="preserve" xmlns="http://www.w3.org/2000/svg" xmlns:xlink="http://www.w3.org/1999/xlink" fill="#EEEBE1">
<g id="SVGRepo_bgCarrier" stroke-width="0"/>
<g id="SVGRepo_tracerCarrier" stroke-linecap="round" stroke-linejoin="round" stroke="#000000" stroke-width="0.43200000000000005"> <style type="text/css"> .st0{display:none;} .st1{display:inline;} .st2{opacity:0.2;fill:none;stroke:#000000;stroke-width:5.000000e-02;stroke-miterlimit:10;} </style> <g class="st0" id="grid_system"/> <g id="_icons"> <path d="M21,11.4c0-1.2-0.5-2.3-1.4-3L14.5,4c-0.7-0.6-1.6-1-2.6-1H7C4.8,3,3,4.8,3,7v10c0,2.2,1.8,4,4,4h1h8h1c2.2,0,4-1.8,4-4 V11.4z M15,19H9v-3c0-0.6,0.4-1,1-1h4c0.6,0,1,0.4,1,1V19z M19,17c0,1.1-0.9,2-2,2v-3c0-1.7-1.3-3-3-3h-4c-1.7,0-3,1.3-3,3v3 c-1.1,0-2-0.9-2-2V7c0-1.1,0.9-2,2-2h4.9c0.5,0,0.9,0.2,1.3,0.5l5.1,4.4c0.4,0.4,0.7,0.9,0.7,1.5V17z"/> <path d="M11,8H8C7.4,8,7,8.4,7,9s0.4,1,1,1h3c0.6,0,1-0.4,1-1S11.6,8,11,8z"/> </g> </g>
<g id="SVGRepo_iconCarrier"> <style type="text/css"> .st0{display:none;} .st1{display:inline;} .st2{opacity:0.2;fill:none;stroke:#000000;stroke-width:0.21600000000000003;stroke-miterlimit:10;} </style> <g class="st0" id="grid_system"/> <g id="_icons"> <path d="M21,11.4c0-1.2-0.5-2.3-1.4-3L14.5,4c-0.7-0.6-1.6-1-2.6-1H7C4.8,3,3,4.8,3,7v10c0,2.2,1.8,4,4,4h1h8h1c2.2,0,4-1.8,4-4 V11.4z M15,19H9v-3c0-0.6,0.4-1,1-1h4c0.6,0,1,0.4,1,1V19z M19,17c0,1.1-0.9,2-2,2v-3c0-1.7-1.3-3-3-3h-4c-1.7,0-3,1.3-3,3v3 c-1.1,0-2-0.9-2-2V7c0-1.1,0.9-2,2-2h4.9c0.5,0,0.9,0.2,1.3,0.5l5.1,4.4c0.4,0.4,0.7,0.9,0.7,1.5V17z"/> <path d="M11,8H8C7.4,8,7,8.4,7,9s0.4,1,1,1h3c0.6,0,1-0.4,1-1S11.6,8,11,8z"/> </g> </g>
</svg>